<?xml version="1.0" encoding="UTF-8"?>
<svg width="363px" height="153px" viewBox="0 0 363 153" version="1.1" xmlns="http://www.w3.org/2000/svg" xmlns:xlink="http://www.w3.org/1999/xlink">
    <!-- Generator: Sketch 59.1 (86144) - https://sketch.com -->
    <title>lg2 copy 3</title>
    <desc>Created with Sketch.</desc>
    <defs>
        <linearGradient x1="56.9640266%" y1="49.8195397%" x2="77.7510758%" y2="48.8828396%" id="linearGradient-1">
            <stop stop-color="#0237CF" offset="0%"></stop>
            <stop stop-color="#FF880E" offset="100%"></stop>
        </linearGradient>
    </defs>
    <g id="ui" stroke="none" stroke-width="1" fill="none" fill-rule="evenodd">
        <g id="style-guide-line" transform="translate(-73.000000, -62.000000)">
            <g id="lg2-copy-3" transform="translate(73.000000, 62.000000)">
                <path d="M0,60.6446867 C0,60.6446867 9.33594996,67.8583919 17.1064492,69.1822647 C23.8773022,70.3358188 36.2205471,69.734381 52.6271395,67.8111994 C52.6943397,68.6521478 52.8008851,69.4920318 52.9460792,70.3319157 C53.4572184,73.2919122 54.6790081,77.1049213 56.6274651,80.1727863 C50.2880163,81.3064699 44.2229392,82.3333495 38.4757572,83.2417157 C2.26112927,88.9637132 0.887181609,80.5357779 0,60.6446867 Z M82.3452861,63.6351986 C140.929216,54.3624118 226.548161,36.0414458 303.331849,18.9666447 C304.126413,18.7906488 306.205092,16.8114039 305.401823,15.073089 C305.160878,14.5521978 309.162248,17.6711584 309.713777,17.548387 C321.847761,14.8477716 333.71956,12.1844135 345.177364,9.60869852 C357.786973,8.26069725 355.938446,9.19603059 345.578128,11.9743538 C275.861252,30.6632791 159.805154,60.2114386 76.9595227,76.3619061 C78.4191245,74.2495998 79.8010805,71.8857187 81.1127026,69.271682 C81.8411107,67.2310515 82.2488382,65.3550623 82.3452861,63.6351986 L82.3452861,63.6351986 Z" id="Fill-1" fill="url(#linearGradient-1)"></path>
                <path d="M323.408722,103 C318.036961,102.805438 313.975303,101.552448 311.226141,99.2657392 C308.478347,96.9786828 306.838838,94.2349809 306.289826,91.064914 C305.935107,89.0176662 305.909794,86.6804902 306.193022,84.0805341 L311.935922,40.2742334 C314.44735,40.751066 316.767565,41.0034045 318.901013,41.0577008 C322.694152,41.0479553 325.238418,41.5696867 326.542363,42.6737109 C327.84665,43.7777351 328.62416,45.0543935 328.879339,46.5273539 C329.242952,48.6240253 329.052765,51.6183254 328.28586,55.5133867 L335.112073,39.2836745 C336.3931,36.8922022 338.124624,35.5003382 340.332642,35.104602 C341.289735,34.9330118 342.359025,34.9723418 343.541195,35.2239841 C347.20435,35.9312279 350.888029,37.921395 354.571708,41.2244181 C356.480763,43.0447354 357.56955,44.8048395 357.868171,46.5273539 L357.942057,46.9516305 C358.101116,48.7514127 357.930427,50.6858913 357.458037,52.7787341 C357.085873,54.5694669 356.840613,56.3640283 356.726022,58.1860858 C356.636059,60.0046628 356.71747,61.7912189 357.011303,63.4883255 C357.197385,64.5627651 357.469667,65.6963738 357.829518,66.8940242 C351.409675,66.6295039 346.908465,65.3263934 344.302286,62.9881733 C341.693028,60.6252413 340.166741,58.0935037 339.694694,55.3724252 C339.245565,52.7756017 339.363919,49.665748 340.071648,46.0136277 L340.207447,45.6276369 L326.598804,77.0244553 C326.633694,77.6617404 326.508499,78.8426843 326.245795,80.5366583 C326.012165,82.2515155 325.718333,84.2089657 325.345826,86.4375492 C324.863175,89.6392889 324.424992,92.8051791 324.027172,95.9139886 C323.629695,99.0227982 323.42993,101.37494 323.408722,103" id="Fill-2" fill="#0237CF"></path>
                <path d="M284.087615,44 C289.580771,44.2044186 293.592937,45.4650581 296.113164,47.7303786 C298.637629,50.0218172 300.171235,52.6130931 300.693855,55.5358962 C301.086172,57.7333093 301.098179,60.2810547 300.748588,63.1488355 L295.246251,106.880141 C289.421867,106.140822 285.481738,104.84292 283.477068,102.977034 C281.446973,101.115327 280.247773,99.0829815 279.855455,96.8845237 C279.332836,93.9624171 279.554243,90.0868212 280.528151,85.3082313 L272.080782,107.739257 C270.733624,110.135865 268.971901,111.523961 266.843638,111.894143 C265.906807,112.056773 264.882755,112.028217 263.777838,111.834594 C260.163288,111.046172 256.43256,109.016612 252.587775,105.769595 C251.447899,104.500249 250.699988,102.802216 250.315792,100.654254 C249.995511,98.8566236 249.90723,96.7591563 250.104625,94.3562799 C250.489881,89.0612457 251.267454,83.1839493 252.466654,76.7428476 C253.46175,71.4969157 254.194477,66.682805 254.663775,62.3008639 C255.134486,57.917878 255.117183,54.3156529 254.608688,51.467722 C254.496749,50.8440188 254.359738,50.2241464 254.206483,49.6585998 C260.783722,49.9309258 265.324157,51.2281308 267.836616,53.5982724 C270.34519,55.9436887 271.830772,58.4155172 272.291242,60.9879879 C272.773606,63.6847814 272.642245,66.9008051 271.878796,70.6649632 L266.762774,101.504315 L282.269746,63.7854236 C282.332955,62.3837457 282.569193,60.0512144 283.007417,56.8073312 C283.323813,54.4855954 283.589008,52.1736104 283.805118,49.8706798 C284.045594,47.561829 284.140583,45.6130614 284.087615,44" id="Fill-3" fill="#0237CF"></path>
                <path d="M200.540194,115.917261 C196.971052,111.959069 194.66134,107.047314 193.633477,101.177055 C193.363374,99.632937 193.189612,98.047191 193.10203,96.3669 C192.609468,88.3669084 193.901478,80.6509048 196.953186,73.222064 C198.734604,78.5141165 203.007905,82.504058 209.832295,85.2321056 C209.36741,90.715012 209.500534,95.6221815 210.262148,99.9740753 C210.607571,101.947174 211.086469,103.793271 211.701996,105.536004 C213.363602,109.258186 215.3377,110.91731 217.573844,110.52008 L217.800506,110.480216 C218.110196,110.477041 218.417084,110.449171 218.693142,110.400135 C220.024739,110.163067 221.283117,109.20915 222.437098,107.517217 C224.940542,103.31596 226.450806,97.8831483 226.976298,91.268171 C227.477617,84.6570742 227.347646,79.1748734 226.589886,74.8490853 C226.258126,72.9507762 225.818464,71.1769985 225.290169,69.4970602 C223.615601,65.6979727 221.586852,64.0240317 219.22459,64.4427815 L219.099172,64.4650066 C218.839229,64.4590094 218.558266,64.4829984 218.257334,64.5359154 C216.95026,64.7680446 215.675416,65.7769954 214.45067,67.5077339 C213.666285,68.5068068 213.356595,69.3979291 213.484465,70.1310059 C213.502332,70.2319009 213.549276,70.3550211 213.626698,70.4968387 C213.999097,71.2920048 214.73899,71.9689895 215.817299,72.5090957 C216.89666,73.0470851 218.067456,73.5180464 219.303764,73.9240962 C220.545326,74.3558989 221.471594,74.7658292 222.113395,75.1739956 C223.400149,76.0150231 224.182782,77.0758325 224.408043,78.3670072 C224.456739,78.6449978 224.484765,78.9529747 224.487568,79.2658906 C224.43712,81.048135 223.947362,82.5439221 223.043866,83.7479602 C222.116197,84.9558788 221.148942,85.6501498 220.168724,85.8240704 C219.767598,85.8949791 219.355612,85.9161459 218.876714,85.8441788 C215.442799,85.0190265 212.504597,83.9229391 210.042492,82.585903 C203.92051,79.1328925 200.53529,75.4819726 199.861959,71.6359652 C199.561028,69.9147517 199.791193,68.1268628 200.58889,66.3149848 C201.950265,64.3260113 203.4826,62.5666976 205.123886,60.9968267 C208.693028,57.70292 212.587975,55.6807852 216.809428,54.9318333 C217.261351,54.8517523 217.693306,54.8009519 218.153987,54.7716712 C218.873911,54.5906951 219.597689,54.436883 220.275924,54.3158795 C226.205576,53.2638896 231.585914,54.8397577 236.440059,59.0399561 C240.056846,63.2757853 242.38933,68.3138362 243.408434,74.1340003 C244.07651,77.9539019 244.17285,82.0588497 243.727233,86.4689522 C242.674497,97.7692004 238.686363,106.955238 231.792608,114.049291 C228.111361,117.285342 224.161062,119.29019 219.94031,120.0402 L218.759704,120.249399 C218.089527,120.420144 217.415145,120.565137 216.787358,120.677321 C210.756811,121.747303 205.323573,120.155207 200.540194,115.917261" id="Fill-4" fill="#0237CF"></path>
                <path d="M179.708758,57.7758062 L172.710146,112.31309 L174.650844,108.569038 C174.943623,108.131901 175.399177,107.848371 175.991218,107.747708 C176.250506,107.704168 176.707861,107.727854 177.416221,107.813888 C178.092891,107.879023 178.88624,108.285857 179.733247,108.989804 C180.296838,109.459683 180.600061,109.951505 180.701255,110.499407 C180.759234,110.824386 180.74591,111.186635 180.681808,111.558985 L175.96745,123.760507 C174.731511,126.03362 173.053342,127.348514 170.986961,127.70101 C170.831749,127.72783 170.130591,127.822572 168.907617,127.978618 C167.659073,128.140585 165.603136,127.3823 162.740886,125.706551 C160.633811,124.958367 158.421942,123.197628 156.078987,120.42921 C155.229819,119.415261 154.634538,118.048816 154.310788,116.274492 C153.709744,112.975588 153.980196,108.32034 155.124664,102.32895 C155.441931,100.266569 156.077907,95.5726582 157.05888,88.2444305 C158.036971,80.8918207 159.078084,72.7283305 160.182579,63.7323641 C161.33605,54.5716441 160.182579,63.7323641 161.33605,54.5716441 C162.079342,48.4858609 164.436341,36.5842395 163.665679,31.0045599 C172.755161,30.7805925 182.086284,38.8371497 180.897161,48.5053666 L180.612305,50.7436475 C179.708758,57.7758062 180.612305,50.7436475 179.708758,57.7758062" id="Fill-5" fill="#0237CF"></path>
                <path d="M81.7322159,81.9478054 C89.7175765,80.8193173 94.1345696,82.6808664 95.0018236,87.504401 C95.3157461,89.2500257 95.1622345,91.3758688 94.5678516,93.8782126 C95.0987601,89.0374414 96.0236241,85.1037868 97.3134661,82.0569703 C98.3783878,79.4731753 100.000781,77.9942104 102.127519,77.626159 C102.499052,77.5629583 102.928539,77.5379484 103.366651,77.5629583 C112.770872,77.938445 118.067883,81.5723186 119.30184,88.4317958 C119.420165,89.0871233 119.492608,89.7738821 119.511237,90.4457702 C120.705177,79.6428372 123.640525,73.8371563 128.266915,73.0381908 L128.489765,73 C134.71716,73.2987671 139.808914,74.9436763 143.73674,77.914449 C146.374034,79.958165 148.028854,82.7717808 148.673947,86.3596902 C148.979245,88.0563091 149.083771,89.9127886 148.929225,91.8892481 L143.27517,133.204282 C133.547367,131.460009 128.100639,127.276255 126.910839,120.659104 C126.66246,119.276461 126.578288,117.817436 126.698337,116.222547 L131.615191,84.5566103 C131.630025,84.3534892 131.618986,84.1561136 131.584834,83.9617798 C131.440982,83.1628143 130.971823,82.5436498 130.174943,82.0809663 C129.356329,81.6470104 128.367646,81.3931935 127.160942,81.351961 L117.853657,137.667877 C112.534223,136.037162 108.354569,133.935315 105.360576,131.328538 C103.287308,129.586969 102.026788,127.404347 101.560389,124.811088 C101.337539,123.574449 101.305111,122.256021 101.452759,120.805446 L105.800413,89.8144387 C105.806277,89.5633256 105.791788,89.3399262 105.761431,89.1706023 C105.621373,88.3952948 105.087705,87.8379792 104.150767,87.4489736 C103.217969,87.0856538 102.137524,86.8970655 100.944273,86.9288349 L92.3314125,142 C86.2989259,140.942486 81.8633045,138.833879 78.9962606,135.654916 C77.6350098,134.19116 76.7501623,132.244442 76.3137756,129.820508 C75.8211587,127.081583 75.9042964,123.718087 76.5935461,119.74996 L81.7322159,81.9478054 Z" id="Fill-6" fill="#0237CF"></path>
                <path d="M52.4068512,123.156588 L54.7447716,107.336313 C56.5574218,97.6168896 56.8981376,89.583006 55.7960048,83.2563664 L55.577171,82 C61.5369292,82.2590446 65.7681774,83.4727036 68.291691,85.6108719 C70.8200523,87.7752946 72.3099918,90.1508037 72.7642797,92.7615534 C73.171823,95.0964555 73.0489021,97.9144408 72.4110986,101.1602 L67.2511918,145 C61.8873402,144.196262 58.18898,142.808973 56.1346432,140.871039 C54.056761,138.938006 52.8171645,136.673466 52.3666855,134.087571 C51.8670381,131.224778 51.8756945,127.599903 52.4068512,123.156588" id="Fill-7" fill="#0237CF"></path>
                <path d="M41.5065796,83.2781992 L34.5622054,137.426365 L36.9148681,132.60136 C37.2064053,132.169074 37.6572877,131.887569 38.2467931,131.786587 C38.5018882,131.744396 38.9567006,131.767221 39.6583907,131.852294 C40.3307842,131.915927 41.1178633,132.320893 41.9592483,133.02085 C42.5183853,133.485645 42.8202835,133.972918 42.9185344,134.519673 C42.9760559,134.839219 42.9639085,135.201994 42.8981697,135.570647 L37.7948389,148.790996 C36.5675958,151.046838 34.9026895,152.354417 32.8537114,152.703359 C32.6997255,152.729988 32.0030372,152.823016 30.7897278,152.978984 C29.5510518,153.138757 27.511363,152.387617 24.6717331,150.722105 C22.5813111,149.979956 20.3876363,148.232136 18.0646275,145.48245 C17.2210988,144.475742 16.6294497,143.119055 16.3082586,141.357403 C15.7119649,138.084132 15.9802792,133.460053 17.1174888,127.513525 C17.4315344,125.463796 18.0624839,120.804443 19.0357038,113.528548 C24.4173526,73.0029297 22.9582373,84.8282045 23.2790712,80.0951896 C24.1268872,73.147832 24.7882051,67.2044159 25.254093,62.2144501 C25.6974726,57.2542257 25.8525304,54.1860313 25.6924707,53.0105587 C35.5032705,52.7684785 41.1571636,56.689487 42.6205662,64.7262057 C43.1089626,67.4032675 43.12111,70.5216071 42.6845186,74.0743078 L42.4019133,76.2966045 C41.5065796,83.2781992 42.4019133,76.2966045 41.5065796,83.2781992" id="Fill-8" fill="#0237CF"></path>
                <path d="M362.751259,5.9431461 C362.555746,5.51905993 362.268249,5.16091186 361.932136,4.84232667 C361.929338,4.83920329 357.25558,2.21070192 354.475738,1.72761849 C350.240221,0.990846849 346.781158,2.08090795 342.884902,3.54473404 C341.45441,4.08265021 339.810568,4.69969212 338.058652,5.35768507 L338.007937,5.35768507 L323.12557,0.0729189222 C322.886688,-0.0107183672 322.627871,-0.0232119042 322.383043,0.0396028235 L319.749048,0.713559736 C319.106551,0.87771093 318.948812,1.71200157 319.487083,2.09652487 L328.77584,8.72399921 L328.758003,8.85101683 C322.499161,11.2022311 317.136389,13.2157728 317.136389,13.2157728 L316.962911,13.2806698 C314.781847,14.0688037 312.374843,14.0184826 310.221409,13.1245006 L305.01043,10.9599953 C304.745666,10.8510239 304.455021,10.7986204 304.17277,10.8468594 C303.119662,11.0259334 302.650642,12.2430121 303.29209,13.071056 L308.406888,19.6790959 C309.208173,20.7139773 310.538636,21.1987959 311.82433,20.9242851 L315.070394,20.2308938 L333.568514,16.0313302 L359.708402,10.0965531 C362.292032,9.54440814 363.577027,7.73527457 362.751259,5.9431461" id="Fill-9" fill="#FF880E"></path>
                <path d="M340,16 L333.852009,17.7882881 L332.03239,23.1458217 C331.925026,23.4601844 332.095546,23.8073201 332.381974,23.8612232 L332.948515,23.9660107 C333.724583,24.1117646 334.510311,23.7827403 335.027442,23.094506 L340,16 Z" id="Fill-10" fill="#FF880E"></path>
                <path d="M76.678725,59.8497825 C78.4627659,61.0863345 79.5150465,62.6933568 79.8609149,64.6365099 C80.2011134,66.5496159 79.9196159,68.7526265 78.9900735,71.2825227 C76.8014632,75.5198182 74.3707117,78.9174469 71.634782,81.4585695 C69.97448,82.8100267 68.37488,83.6354953 66.8583285,83.9003056 C60.666716,84.9803488 57.2053631,77.0360389 56.3291853,72.110963 C55.9299523,69.8729525 55.8999348,67.6332911 56.2061134,65.3946202 C56.8158025,61.0694949 58.9800653,58.4161086 62.6928982,57.4040841 L63.3772975,57.2852166 C67.9256179,56.4907856 72.3418613,57.3591786 76.678725,59.8497825" id="Fill-11" fill="#0237CF"></path>
            </g>
        </g>
    </g>
</svg>