<?xml version="1.0" encoding="UTF-8"?>
<svg width="20px" height="24px" viewBox="0 0 20 24" version="1.1" xmlns="http://www.w3.org/2000/svg" xmlns:xlink="http://www.w3.org/1999/xlink">
    <!-- Generator: Sketch 59.1 (86144) - https://sketch.com -->
    <title>write and notes</title>
    <desc>Created with Sketch.</desc>
    <g id="ui" stroke="none" stroke-width="1" fill="none" fill-rule="evenodd">
        <g id="tab-bar" transform="translate(-210.000000, -225.000000)">
            <g id="write-and-notes" transform="translate(211.000000, 225.000000)">
                <path d="M18,15.6 L18,20.4 C18,21.7298007 16.993672,22.8 15.6,22.8 L2.4,22.8 C1.0043676,22.8 0,21.7279232 0,20.4 L0,7.2 C0,5.87015631 1.00105053,4.8 2.4,4.8 L7.2,4.8" id="Rectangle-23-Copy" stroke="#0237CF" stroke-width="2" stroke-linecap="round"></path>
                <g id="pen" transform="translate(12.100000, 8.500000) rotate(-360.000000) translate(-12.100000, -8.500000) translate(10.600000, 0.000000)">
                    <line x1="1.3878418" y1="12.0020508" x2="1.3878418" y2="4.8" id="Line" stroke="#0237CF" stroke-width="2" stroke-linecap="square"></line>
                    <path d="M0.2,1.2 C0.2,0.5372583 0.732637787,0 1.4,0 L1.4,0 C2.0627417,0 2.6,0.532637787 2.6,1.2 L2.6,2.4 L0.2,2.4 L0.2,1.2 Z" id="Rectangle-31" fill="#A1AFFF"></path>
                    <path d="M0.987028074,16.5352735 L0.2,14.4 L2.6,14.4 L1.81297193,16.5352735 C1.58489383,17.1540686 1.2125,17.1469979 0.987028074,16.5352735 Z" id="Triangle-1" fill="#0237CF"></path>
                </g>
                <line x1="3.6" y1="9" x2="7.2" y2="9" id="Line" stroke="#A1AFFF" stroke-linecap="round" stroke-linejoin="round"></line>
                <line x1="3.6" y1="12.6" x2="7.2" y2="12.6" id="Line-Copy-5" stroke="#A1AFFF" stroke-linecap="round" stroke-linejoin="round"></line>
            </g>
        </g>
    </g>
</svg>